#!OML:ASF G:\JayActor3\Patient Classification 1\Patient 1\Session 2\male.ASF
:FULLY-SPECIFIED
:DEGREES
1055
root 29.7753 15.3059 1.38338 -848.316 84.3771 -120.806
lowerback 10.3845 -4.41087 -14.5262
upperback 5.5542 -6.83968 -2.31262
thorax 1.59251 -3.65341 6.13285
lowerneck -9.4865 2.95988 4.46272
upperneck 12.579 2.35901 8.67271
head 5.33037 2.05133 2.16865
rclavicle 5.36719e-014 -2.22639e-014
rhumerus -37.6392 24.2609 -49.1566
rradius 59.8448
rwrist -16.6319
rhand -7.60297 12.0022
rfingers 7.12502
rthumb 18.2908 -17.1579
lclavicle 5.36719e-014 -2.22639e-014
lhumerus 8.37179 -49.4164 64.2243
lradius 63.5363
lwrist 22.0654
lhand -21.8768 21.8943
lfingers 7.12502
lthumb 4.52777 51.8259
rfemur -47.3775 -15.8316 18.1824
rtibia 38.0412
rfoot -18.6625 2.1468
rtoes -21.2843
lfemur 16.593 29.366 -28.5014
ltibia 19.397
lfoot -30.8169 16.7399
ltoes -8.93327
1056
root 30.0127 15.2972 1.37765 -848.295 84.6636 -121.073
lowerback 9.80688 -4.5171 -14.4539
upperback 5.41516 -6.89904 -2.3937
thorax 1.7497 -3.6866 5.96086
lowerneck -9.51415 3.25492 4.59047
upperneck 12.7099 2.78409 8.195
head 5.37351 2.23317 2.03215
rclavicle -6.81831e-014 -6.67916e-014
rhumerus -39.9275 23.7547 -51.1478
rradius 59.2684
rwrist -16.3596
rhand -7.47753 12.0452
rfingers 7.12502
rthumb 18.4115 -17.1035
lclavicle -6.81831e-014 -6.67916e-014
lhumerus 7.15219 -50.4781 66.3947
lradius 64.1613
lwrist 22.3076
lhand -21.7626 21.774
lfingers 7.12502
lthumb 4.63796 51.7032
rfemur -46.8376 -15.7108 20.1388
rtibia 37.0975
rfoot -19.2091 2.98739
rtoes -19.9616
lfemur 17.7972 29.275 -28.3454
ltibia 18.57
lfoot -30.1854 16.6549
ltoes -11.0652
1057
root 30.2531 15.294 1.36614 -849.449 84.7609 -122.613
lowerback 9.22051 -4.69998 -14.2564
upperback 5.24844 -7.05679 -2.39271
thorax 1.8956 -3.76728 5.81079
lowerneck -9.58032 3.55347 4.71963
upperneck 12.8649 3.22074 7.6221
head 5.43463 2.41425 1.86833
rclavicle -8.8658e-014 7.95139e-015
rhumerus -42.0703 23.2099 -52.9515
rradius 58.6498
rwrist -16.0854
rhand -7.35787 12.1193
rfingers 7.12502
rthumb 18.5266 -17.0185
lclavicle -8.8658e-014 7.95139e-015
lhumerus 5.79975 -51.4515 68.6832
lradius 64.8868
lwrist 22.6334
lhand -21.7143 21.6897
lfingers 7.12502
lthumb 4.68469 51.6179
rfemur -46.2987 -15.4691 21.8706
rtibia 36.4203
rfoot -19.7779 3.58442
rtoes -18.1722
lfemur 19.0144 28.8679 -28.2767
ltibia 17.4573
lfoot -29.4433 16.8348
ltoes -13.1994
1058
root 30.4961 15.2954 1.35006 -852.001 84.6701 -125.636
lowerback 8.62781 -4.95372 -13.9795
upperback 5.06769 -7.30866 -2.31723
thorax 2.04761 -3.89543 5.69558
lowerneck -9.68166 3.84739 4.84714
upperneck 13.0191 3.65694 6.99067
head 5.50567 2.59 1.68797
rclavicle -1.25036e-013 3.65764e-014
rhumerus -44.056 22.5932 -54.5542
rradius 57.9972
rwrist -15.807
rhand -7.24619 12.2199
rfingers 7.12502
rthumb 18.634 -16.9076
lclavicle -1.25036e-013 3.65764e-014
lhumerus 4.38596 -52.3779 71.0255
lradius 65.688
lwrist 23.0347
lhand -21.7225 21.6333
lfingers 7.12502
lthumb 4.67672 51.5617
rfemur -45.7579 -15.0351 23.3103
rtibia 35.9862
rfoot -20.3172 3.98051
rtoes -16.2184
lfemur 20.2472 28.1921 -28.2752
ltibia 16.1052
lfoot -28.6119 17.1489
ltoes -15.1333
1059
root 30.7417 15.3004 1.33104 -855.718 84.4036 -129.888
lowerback 8.03174 -5.26182 -13.6742
upperback 4.88504 -7.6355 -2.18213
thorax 2.21829 -4.063 5.62338
lowerneck -9.81017 4.12976 4.96418
upperneck 13.151 4.08144 6.34713
head 5.57793 2.75709 1.50567
rclavicle 2.89232e-014 2.06736e-014
rhumerus -45.8873 21.8783 -55.9584
rradius 57.3254
rwrist -15.5378
rhand -7.16599 12.3525
rfingers 7.12502
rthumb 18.7112 -16.7676
lclavicle 2.89232e-014 2.06736e-014
lhumerus 2.97889 -53.3051 73.359
lradius 66.531
lwrist 23.4852
lhand -21.7571 21.5862
lfingers 7.12502
lthumb 4.64334 51.5154
rfemur -45.2141 -14.3579 24.4178
rtibia 35.7702
rfoot -20.7393 4.31342
rtoes -14.3141
lfemur 21.4967 27.3363 -28.2998
ltibia 14.592
lfoot -27.7027 17.454
ltoes -16.7475
1060
root 30.9901 15.308 1.31061 -860.203 83.9786 -134.958
lowerback 7.42983 -5.60764 -13.3919
upperback 4.70555 -8.0169 -2.00412
thorax 2.41598 -4.26083 5.60088
lowerneck -9.9451 4.39609 5.07082
upperneck 13.2403 4.48725 5.71959
head 5.64075 2.91346 1.32873
rclavicle -3.37934e-014 1.43125e-014
rhumerus -47.5672 21.0532 -57.173
rradius 56.6404
rwrist -15.2713
rhand -7.11111 12.4959
rfingers 7.12502
rthumb 18.764 -16.619
lclavicle -3.37934e-014 1.43125e-014
lhumerus 1.62643 -54.2747 75.639
lradius 67.3835
lwrist 23.965
lhand -21.7981 21.531
lfingers 7.12502
lthumb 4.60377 51.461
rfemur -44.6917 -13.4505 25.1979
rtibia 35.7506
rfoot -20.9423 4.71635
rtoes -12.8989
lfemur 22.7478 26.4031 -28.3084
ltibia 13.0211
lfoot -26.724 17.624
ltoes -18.0659
1061
root 31.2412 15.3171 1.29023 -865.054 83.4055 -140.447
lowerback 6.81095 -5.9779 -13.1708
upperback 4.5258 -8.43497 -1.7982
thorax 2.64437 -4.48026 5.62966
lowerneck -10.0813 4.63684 5.1663
upperneck 13.2843 4.85904 5.12686
head 5.69168 3.05335 1.1617
rclavicle -6.9674e-014 1.74931e-014
rhumerus -49.1042 20.1109 -58.2144
rradius 55.9473
rwrist -15.004
rhand -7.06347 12.6232
rfingers 7.12502
rthumb 18.8098 -16.4873
lclavicle -6.9674e-014 1.74931e-014
lhumerus 0.364826 -55.3148 77.8346
lradius 68.2114
lwrist 24.4406
lhand -21.7988 21.4601
lfingers 7.12502
lthumb 4.60302 51.3901
rfemur -44.2293 -12.3314 25.6707
rtibia 35.8925
rfoot -20.8381 5.35528
rtoes -11.9094
lfemur 23.9311 25.4785 -28.2725
ltibia 11.5407
lfoot -25.6748 17.5824
ltoes -19.2091
1062
root 31.4948 15.3271 1.27041 -869.915 82.685 -145.981
lowerback 6.19361 -6.35992 -13.0261
upperback 4.33837 -8.87594 -1.57382
thorax 2.88511 -4.71311 5.70957
lowerneck -10.1966 4.84583 5.23355
upperneck 13.2847 5.18994 4.58586
head 5.72569 3.17413 1.01121
rclavicle 9.38264e-014 -2.38542e-014
rhumerus -50.5214 19.0672 -59.1028
rradius 55.2486
rwrist -14.7369
rhand -7.02479 12.7297
rfingers 7.12502
rthumb 18.847 -16.3772
lclavicle 9.38264e-014 -2.38542e-014
lhumerus -0.816355 -56.4381 79.9588
lradius 68.9895
lwrist 24.8816
lhand -21.7362 21.3806
lfingers 7.12502
lthumb 4.66346 51.3093
rfemur -43.8199 -11.039 25.8709
rtibia 36.1518
rfoot -20.44 6.21403
rtoes -11.9414
lfemur 24.983 24.6237 -28.1526
ltibia 10.3149
lfoot -24.5663 17.2791
ltoes -20.281
1063
root 31.7504 15.3383 1.25109 -874.331 81.8071 -151.086
lowerback 5.5995 -6.74466 -12.9259
upperback 4.13905 -9.32916 -1.33237
thorax 3.11543 -4.95191 5.82546
lowerneck -10.3096 5.01351 5.281
upperneck 13.2747 5.46405 4.08503
head 5.75629 3.26911 0.872066
rclavicle -2.49475e-014 2.06736e-014
rhumerus -51.8482 17.9268 -59.8606
rradius 54.563
rwrist -14.4672
rhand -6.9864 12.8063
rfingers 7.12502
rthumb 18.8839 -16.2971
lclavicle -2.49475e-014 2.06736e-014
lhumerus -1.94904 -57.6388 82.0364
lradius 69.7015
lwrist 25.2609
lhand -21.6089 21.2818
lfingers 7.12502
lthumb 4.78644 51.2077
rfemur -43.4374 -9.57741 25.8357
rtibia 36.4654
rfoot -19.7985 7.32248
rtoes -12.7764
lfemur 25.9022 24.1708 -27.7318
ltibia 9.4981
lfoot -23.3294 16.4001
ltoes -21.4538
